<?xml version="1.0" encoding="UTF-8"?>
<svg width="24px" height="24px" viewBox="0 0 24 24" version="1.1" xmlns="http://www.w3.org/2000/svg" xmlns:xlink="http://www.w3.org/1999/xlink">
    <title>Icons / Banking / ic_capitalization_48</title>
    <defs>
        <path d="M17.9797553,21.1270256 C16.8244653,22.2826059 14.9509141,22.2826059 13.7953781,21.12707 C13.156578,20.4882699 12.7872602,19.4735595 12.6105014,18.1817541 C12.4790419,17.2210085 12.4663155,16.2084207 12.5228497,15.2746126 C12.5344247,15.0834214 12.5461361,14.9430645 12.5542491,14.864222 C12.6747685,13.6931594 13.7052698,12.6626581 14.8763392,12.5421379 C14.9551749,12.5340257 15.0955318,12.5223142 15.2867231,12.5107392 C16.2205311,12.4542051 17.233119,12.4669314 18.1938645,12.598391 C19.4856699,12.7751498 20.5003803,13.1444676 21.1391804,13.7832677 C22.2947164,14.9388037 22.2947164,16.8123549 21.1392413,17.9675396 C20.5194375,18.5875569 19.6765067,18.8860214 18.8394974,18.8273849 C18.8981232,19.6642916 18.5996951,20.5070858 17.9797553,21.1270256 Z M20.4321181,17.2604493 C21.1970705,16.495689 21.1970705,15.2553713 20.4320736,14.4903745 C19.9824709,14.0407718 19.1533249,13.7389927 18.0582969,13.5891591 C17.1725476,13.4679613 16.2210754,13.4560031 15.3471539,13.5089116 C15.1705864,13.5196013 15.0441105,13.5301545 14.9787063,13.5368846 C14.2789384,13.608901 13.6210114,14.2668279 13.5489958,14.9665892 C13.5422649,15.032 13.5317117,15.158476 13.521022,15.3350435 C13.4681135,16.208965 13.4800718,17.1604372 13.6012695,18.0461865 C13.7511031,19.1412144 14.0528822,19.9703605 14.5024849,20.4199632 C15.2674818,21.1849601 16.5077995,21.1849601 17.2726041,20.4199632 C17.8179929,19.8745744 17.9875918,19.0691828 17.7263635,18.3578887 C17.7058884,18.3033045 17.6948579,18.2450293 17.6944713,18.1856636 C17.6953203,18.048939 17.7475009,17.9238281 17.8383108,17.8315182 C17.9359385,17.7353904 18.0610494,17.6832098 18.1914192,17.6823608 C18.2571397,17.6827474 18.3154149,17.693778 18.3699991,17.714253 C19.0813141,17.9754889 19.8868932,17.8058619 20.4321181,17.2604493 Z M6.02914293,2.87284492 C7.18443297,1.71726454 9.05798417,1.71726454 10.2135201,2.8728005 C10.8523203,3.51160063 11.221638,4.52631097 11.3983968,5.81811643 C11.5298564,6.77886196 11.5425827,7.79144978 11.4860486,8.72525784 C11.4744736,8.91644908 11.4627622,9.05680598 11.4546492,9.13564849 C11.3341297,10.3067111 10.3036285,11.3372124 9.13255908,11.4577325 C9.05372332,11.4658448 8.91336642,11.4775563 8.72217519,11.4891313 C7.78836713,11.5456654 6.7757793,11.532939 5.81503378,11.4014795 C4.52322831,11.2247207 3.50851797,10.8554029 2.86971785,10.2166028 C1.71418189,9.06106683 1.71418189,7.18751562 2.86965697,6.03233089 C3.48946072,5.41231363 4.33239155,5.11384909 5.16940081,5.17248561 C5.1107751,4.33557893 5.40920317,3.49278469 6.02914293,2.87284492 Z M3.5767802,6.7394212 C2.81182777,7.50418144 2.81182777,8.74449915 3.57682463,9.50949601 C4.02642733,9.95909871 4.85557338,10.2608778 5.95060137,10.4107114 C6.83635065,10.5319092 7.78782282,10.5438674 8.66174435,10.4909589 C8.83831184,10.4802692 8.96478781,10.469716 9.03019192,10.4629859 C9.72995988,10.3909695 10.3878868,9.73304254 10.4599025,9.03328133 C10.4666333,8.96787046 10.4771866,8.84139449 10.4878762,8.664827 C10.5407847,7.79090547 10.5288265,6.8394333 10.4076287,5.95368403 C10.2577952,4.85865604 9.95601605,4.02950998 9.50641335,3.57990728 C8.74141649,2.81491042 7.50109879,2.81491042 6.73629413,3.57990728 C6.19090531,4.1252961 6.02130642,4.93068764 6.28253478,5.64198177 C6.30300986,5.69656594 6.31404039,5.75484118 6.31442699,5.81420688 C6.313578,5.95093149 6.2613974,6.07604237 6.17058748,6.16835226 C6.07295972,6.26448005 5.94784884,6.31666065 5.81747903,6.31750964 C5.75175854,6.31712304 5.69348331,6.30609252 5.63889915,6.28561744 C4.92758417,6.02438158 4.12200502,6.19400861 3.5767802,6.7394212 Z M21.139136,6.03222559 C22.2947164,7.18751562 22.2947164,9.06106683 21.1391804,10.2166028 C20.5003803,10.8554029 19.4856699,11.2247207 18.1938645,11.4014795 C17.233119,11.532939 16.2205311,11.5456654 15.2867231,11.4891313 C15.0955318,11.4775563 14.9551749,11.4658448 14.8763324,11.4577318 C13.7052698,11.3372124 12.6747685,10.3067111 12.5542484,9.13564173 C12.5461361,9.05680598 12.5344247,8.91644908 12.5228497,8.72525784 C12.4663155,7.79144978 12.4790419,6.77886196 12.6105014,5.81811643 C12.7872602,4.52631097 13.156578,3.51160063 13.7953781,2.8728005 C14.9509141,1.71726454 16.8244653,1.71726454 17.97965,2.87273962 C18.5996673,3.49254338 18.8981318,4.3354742 18.8394953,5.17248347 C19.676402,5.11385775 20.5191962,5.41228582 21.139136,6.03222559 Z M17.2725597,3.57986286 C16.5077995,2.81491042 15.2674818,2.81491042 14.5024849,3.57990728 C14.0528822,4.02950998 13.7511031,4.85865604 13.6012695,5.95368403 C13.4800718,6.8394333 13.4681135,7.79090547 13.521022,8.664827 C13.5317117,8.84139449 13.5422649,8.96787046 13.5489951,9.03327458 C13.6210114,9.73304254 14.2789384,10.3909695 14.9786996,10.4629852 C15.0441105,10.469716 15.1705864,10.4802692 15.3471539,10.4909589 C16.2210754,10.5438674 17.1725476,10.5319092 18.0582969,10.4107114 C19.1533249,10.2608778 19.9824709,9.95909871 20.4320736,9.50949601 C21.1970705,8.74449915 21.1970705,7.50418144 20.4320736,6.73937679 C19.8866848,6.19398797 19.0812933,6.02438907 18.3699991,6.28561743 C18.315415,6.30609251 18.2571397,6.31712304 18.197774,6.31750964 C18.0610494,6.31666065 17.9359385,6.26448005 17.8436287,6.17367013 C17.7475009,6.07604237 17.6953203,5.95093149 17.6944713,5.82056168 C17.6948579,5.75484119 17.7058884,5.69656597 17.7263635,5.64198181 C17.9875993,4.93066682 17.8179723,4.12508767 17.2725597,3.57986286 Z M2.86976227,17.9676449 C1.71418189,16.8123549 1.71418189,14.9388037 2.86971785,13.7832677 C3.50851797,13.1444676 4.52322831,12.7751498 5.81503378,12.598391 C6.7757793,12.4669314 7.78836713,12.4542051 8.72217519,12.5107392 C8.91336642,12.5223142 9.05372332,12.5340257 9.13256583,12.5421386 C10.3036285,12.6626581 11.3341297,13.6931594 11.4546499,14.8642288 C11.4627622,14.9430645 11.4744736,15.0834214 11.4860486,15.2746126 C11.5425827,16.2084207 11.5298564,17.2210085 11.3983968,18.1817541 C11.221638,19.4735595 10.8523203,20.4882699 10.2135201,21.12707 C9.05798417,22.2826059 7.18443297,22.2826059 6.02924824,21.1271309 C5.40923098,20.5073271 5.11076643,19.6643963 5.16940296,18.827387 C4.33249627,18.8860127 3.48970203,18.5875847 2.86976227,17.9676449 Z M6.73633855,20.4200076 C7.50109879,21.1849601 8.74141649,21.1849601 9.50641335,20.4199632 C9.95601605,19.9703605 10.2577952,19.1412144 10.4076287,18.0461865 C10.5288265,17.1604372 10.5407847,16.208965 10.4878762,15.3350435 C10.4771866,15.158476 10.4666333,15.032 10.4599032,14.9665959 C10.3878868,14.2668279 9.72995988,13.608901 9.03019868,13.5368853 C8.96478781,13.5301545 8.83831184,13.5196013 8.66174435,13.5089116 C7.78782282,13.4560031 6.83635065,13.4679613 5.95060137,13.5891591 C4.85557338,13.7389927 4.02642733,14.0407718 3.57682463,14.4903745 C2.81182777,15.2553713 2.81182777,16.495689 3.57682463,17.2604937 C4.12221345,17.8058825 4.92760498,17.9754814 5.63889912,17.7142531 C5.69348329,17.693778 5.75175852,17.6827474 5.81112423,17.6823608 C5.94784884,17.6832098 6.07295972,17.7353904 6.16526961,17.8262004 C6.2613974,17.9238281 6.313578,18.048939 6.31442699,18.1793088 C6.31404039,18.2450293 6.30300986,18.3033045 6.28253479,18.3578887 C6.02129892,19.0692037 6.19092596,19.8747828 6.73633855,20.4200076 Z" id="path-1"></path>
    </defs>
    <g id="Icons-/-Banking-/-ic_capitalization" stroke="none" stroke-width="1" fill="none" fill-rule="evenodd">
        <mask id="mask-2" fill="white">
            <use xlink:href="#path-1"></use>
        </mask>
        <use id="ic_capitalization" fill="#CC0000" xlink:href="#path-1"></use>
    </g>
</svg>