<svg xmlns="http://www.w3.org/2000/svg" width="24" height="24" viewBox="0 0 24 24">
    <path fill="#222" d="M3.494 14.99c.276 0 .5.224.5.5v2.035c0 1.367 1.122 2.478 2.506 2.478h1.99c.276 0 .5.224.5.5s-.224.5-.5.5H6.5c-1.935 0-3.506-1.556-3.506-3.478v-2.034c0-.277.224-.5.5-.5zm17.012 0c.276 0 .5.224.5.5v2.035c0 1.922-1.571 3.478-3.506 3.478h-1.99c-.276 0-.5-.224-.5-.5s.224-.5.5-.5h1.99c1.384 0 2.506-1.11 2.506-2.478v-2.034c0-.277.224-.5.5-.5zM7.498 6.998c.276 0 .5.224.5.5v9c0 .276-.224.5-.5.5s-.5-.224-.5-.5v-9c0-.276.224-.5.5-.5zm7 0c.276 0 .5.224.5.5v9c0 .276-.224.5-.5.5s-.5-.224-.5-.5v-9c0-.276.224-.5.5-.5zm-5 0c.276 0 .5.224.5.5v9c0 .276-.224.5-.5.5s-.5-.224-.5-.5v-9c0-.276.224-.5.5-.5zm3 0c.276 0 .5.224.5.5v9c0 .276-.224.5-.5.5s-.5-.224-.5-.5v-9c0-.276.224-.5.5-.5zm3.997 0c.276 0 .5.224.5.5v9c0 .276-.224.5-.5.5s-.5-.224-.5-.5v-9c0-.276.224-.5.5-.5zm1.005-4c1.935 0 3.506 1.556 3.506 3.478v2.034c0 .277-.224.5-.5.5s-.5-.223-.5-.5V6.475c0-1.367-1.122-2.478-2.506-2.478h-1.99c-.276 0-.5-.224-.5-.5s.224-.5.5-.5zm-9.01 0c.276 0 .5.224.5.5s-.224.5-.5.5H6.5c-1.384 0-2.506 1.11-2.506 2.478v2.034c0 .277-.224.5-.5.5s-.5-.223-.5-.5V6.475c0-1.922 1.571-3.478 3.506-3.478h1.99z"/>
</svg>
