<svg xmlns="http://www.w3.org/2000/svg" width="24" height="24" viewBox="0 0 24 24">
    <path fill="#222" d="M12 2c5.523 0 10 4.477 10 10s-4.477 10-10 10S2 17.523 2 12 6.477 2 12 2zm0 1c-4.97 0-9 4.03-9 9s4.03 9 9 9 9-4.03 9-9-4.03-9-9-9zm0 13.066c.276 0 .5.223.5.5v1c0 .276-.224.5-.5.5s-.5-.224-.5-.5v-1c0-.277.224-.5.5-.5zM8.5 9.5c0-2.171 1.952-3.827 4.13-3.444 1.413.247 2.566 1.4 2.815 2.814.267 1.52-.456 2.98-1.757 3.697-.739.407-1.188 1.095-1.188 1.846v.251c0 .276-.224.5-.5.5s-.5-.224-.5-.5v-.25c0-1.135.661-2.147 1.705-2.723.931-.513 1.447-1.555 1.255-2.648-.176-1-1.004-1.828-2.002-2.002C10.894 6.766 9.5 7.948 9.5 9.5c0 .275-.224.5-.5.5s-.5-.225-.5-.5z"/>
</svg>
