<svg xmlns="http://www.w3.org/2000/svg" width="24" height="24" viewBox="0 0 41 40">
    <path fill="#222" d="M20,0 C31.0462847,0 40,8.95371525 40,20 C40,31.0462847 31.0462847,40 20,40 C8.95371525,40 0,31.0462847 0,20 C0,8.95371525 8.95371525,0 20,0 Z M26.643483,28.0008096 L13.356517,28.0008096 C14.6027063,31.6200141 16.7156362,35.0506227 19.6953068,38.0302932 L19.6622952,37.9968961 C19.7746149,37.9989624 19.8871862,38 20,38 C20.1128138,38 20.2253851,37.9989624 20.3377048,37.9968961 C23.299867,35.0254297 25.401869,31.6067265 26.643483,28.0008096 Z M36.1288263,28.0007404 L28.74982,28.0008315 C27.6626474,31.4412275 25.8591336,34.7354591 23.3392784,37.69091 C28.959494,36.6368816 33.6589091,32.9707071 36.1288263,28.0007404 Z M11.25018,28.0008315 L3.87117368,28.0007404 C6.34109089,32.9707071 11.040506,36.6368816 16.66113,37.6909752 C14.1408664,34.7354591 12.3373526,31.4412275 11.25018,28.0008315 Z M10.7022358,14.0005406 L3.02392314,14.0004708 C2.36080872,15.8769815 2,17.8963256 2,20 C2,22.1040489 2.36093718,24.1237374 3.02427727,26.0005312 L10.7023662,26.0008199 C9.78285474,22.0474173 9.78281128,17.9539565 10.7022358,14.0005406 Z M27.2395455,14.0002487 L12.7604545,14.0002487 C11.7634485,17.9464073 11.7634485,22.0543927 12.7604545,26.0005513 L27.2395455,26.0005513 C28.2365515,22.0543927 28.2365515,17.9464073 27.2395455,14.0002487 Z M36.9760769,14.0004708 L29.2977642,14.0005406 C30.2171887,17.9539565 30.2171453,22.0474173 29.2976338,26.0008199 L36.9757227,26.0005312 C37.6390628,24.1237374 38,22.1040489 38,20 C38,17.8963256 37.6391913,15.8769815 36.9760769,14.0004708 Z M16.6622845,2.30805717 L16.450384,2.34985656 C10.9227659,3.45523029 6.30952842,7.09203355 3.87067515,12.0002628 L11.25018,11.9999685 C12.3375773,8.5588613 14.1416121,5.26397892 16.6622845,2.30805717 Z M20,2 C19.887522,2 19.775285,2.00103147 19.6632981,2.00308546 C16.7003533,4.97485674 14.5979161,8.39424583 13.3562038,12.0009002 L26.6437962,12.0009002 C25.3976478,8.38136074 23.2846134,4.95042699 20.3046932,1.97050678 L20.3367019,2.00308546 C20.224715,2.00103147 20.112478,2 20,2 Z M23.3378691,2.30883713 L23.5842563,2.60099379 C25.9763549,5.48100939 27.6982094,8.67210967 28.74982,11.9999685 L36.1293249,12.0002628 C33.6593949,7.02949129 28.9593143,3.36275406 23.3378691,2.30883713 Z"/>
</svg>
