<svg xmlns="http://www.w3.org/2000/svg" class="push-r" width="24" height="24" viewBox="0 0 24 24">
<path fill="#222" d="M6.5 12.023c.276 0 .5.224.5.5v.5h2.698l1.676-.852c.649-.228 1.112-.173 1.938.14l.214.084L17 13.785v-1.262c0-.245.177-.45.41-.492l.09-.008h4c.276 0 .5.224.5.5v6.514c0 1.097-.889 1.986-1.986 1.986H17.5c-.276 0-.5-.224-.5-.5v-.785l-1.65 1.2c-1.968 1.36-4.55 1.425-6.503.136l-.207-.143L7 19.733v.79c0 .276-.224.5-.5.5H3.986C2.889 21.023 2 20.134 2 19.037v-6.514c0-.276.224-.5.5-.5h4zm1.842 2H7v4.479l2.228 1.62c1.559 1.134 3.68 1.165 5.34.135l.204-.135 1.524-1.11-4.084-3.671-.078.037-.086.041c-.376.181-.809.402-1.293.665-.996.538-2.058.496-2.545-.33-.34-.575-.278-1.188.132-1.731zm-2.342-1H3v6.014c0 .545.441.986.986.986H6v-7zm15 0h-3v7h2.014c.545 0 .986-.441.986-.986v-6.014zm-9.147.04l-.085.025-2.044 1.044c-.683.401-.847.785-.653 1.113.15.255.626.274 1.208-.04.498-.27.945-.499 1.335-.687.141-.068.258-.123.348-.164l.143-.064c.15-.064.319-.05.455.03l.077.058L17 18.3v-3.438l-3.846-1.538c-.692-.277-.99-.343-1.3-.262zm-.35-11.064c.246 0 .45.177.493.41l.008.09v.467c.231.047.461.117.687.205.256.1.454.201.574.274.237.143.312.45.17.687-.144.236-.451.312-.687.169-.075-.045-.223-.121-.42-.198-.325-.127-.654-.202-.96-.202-.606 0-1.007.276-1.007.609 0 .36.289.594 1.185.962l.187.076.106.042c1.378.545 1.899.913 1.899 1.814 0 .943-.683 1.518-1.734 1.66v.433c0 .276-.224.5-.5.5-.246 0-.45-.177-.492-.41l-.008-.09-.001-.424c-.397-.044-.745-.146-1.046-.291-.263-.127-.444-.263-.547-.37-.192-.199-.186-.515.012-.707.2-.192.516-.186.707.013.025.026.111.09.262.163.279.134.633.217 1.074.217.867 0 1.273-.263 1.273-.694 0-.273-.26-.474-1.093-.814l-.174-.07-.106-.042C9.931 5.91 9.361 5.492 9.361 4.51c0-.87.716-1.462 1.642-1.585v-.426c0-.276.224-.5.5-.5z">
</path>
</svg>
