<svg xmlns="http://www.w3.org/2000/svg" xmlns:xlink="http://www.w3.org/1999/xlink" width="32" height="32" viewBox="0 0 32 32">
    <defs>
        <path id="prefix__a" d="M20.667 0c3.313 0 6 2.686 6 6v14.667c0 3.313-2.687 6-6 6H6c-3.314 0-6-2.687-6-6V6c0-3.314 2.686-6 6-6h14.667zm0 1.333H6c-2.577 0-4.667 2.09-4.667 4.667v14.667c0 2.577 2.09 4.666 4.667 4.666h14.667c2.577 0 4.666-2.089 4.666-4.666V6c0-2.577-2.089-4.667-4.666-4.667zm-4 2.667c3.313 0 6 2.686 6 6v6.667c0 3.313-2.687 6-6 6H10c-3.314 0-6-2.687-6-6V10c0-3.314 2.686-6 6-6h6.667zm0 1.333H10c-2.577 0-4.667 2.09-4.667 4.667v6.667c0 2.577 2.09 4.666 4.667 4.666h6.667c2.577 0 4.666-2.089 4.666-4.666V10c0-2.577-2.089-4.667-4.666-4.667zm-3.334 3.334c2.578 0 4.667 2.089 4.667 4.666C18 15.911 15.91 18 13.333 18s-4.666-2.09-4.666-4.667 2.089-4.666 4.666-4.666zm0 1.333C11.493 10 10 11.492 10 13.333c0 1.841 1.492 3.334 3.333 3.334 1.841 0 3.334-1.493 3.334-3.334 0-1.84-1.493-3.333-3.334-3.333zm4.836-2.831c.737 0 1.334.597 1.334 1.333 0 .737-.597 1.334-1.334 1.334-.736 0-1.333-.597-1.333-1.334 0-.736.597-1.333 1.333-1.333z"/>
    </defs>
    <g fill="none" fill-rule="evenodd" transform="translate(2.667 2.667)">
        <use fill="#FFF" xlink:href="#prefix__a"/>
    </g>
</svg>
