<svg xmlns="http://www.w3.org/2000/svg" width="24" height="24" viewBox="0 0 24 24">
    <path fill="#222" d="M16.335 11.203c-.03-.684-.222-1.364-.577-1.978L12.626 3.81c-.24-.414-.404-.857-.494-1.31l-.13.227c-.777 1.34-.777 2.99-.002 4.331l2.505 4.333c.775 1.34.775 2.992 0 4.333l-.131.225c-.092-.453-.256-.896-.495-1.308l-2.294-3.967L10.12 8.14c-.24-.412-.403-.855-.495-1.308l-.13.225c-.773 1.336-.775 2.981-.008 4.32L12 15.723c.774 1.34.774 2.992 0 4.333l-.133.226c-.09-.454-.255-.897-.494-1.31l-3.132-5.416c-.419-.726-.612-1.544-.577-2.354C4.314 12.078 2 13.935 2 16.085c0 2.99 4.476 5.415 10.001 5.415 5.523 0 9.999-2.425 9.999-5.415 0-2.15-2.314-4.009-5.665-4.882"/>
</svg>
