<svg xmlns="http://www.w3.org/2000/svg" xmlns:xlink="http://www.w3.org/1999/xlink" width="32" height="32" viewBox="0 0 32 32">
    <defs>
        <path id="prefix__a" d="M20.667 0c3.313 0 6 2.686 6 6v14.667c0 3.313-2.687 6-6 6H6c-3.314 0-6-2.687-6-6V6c0-3.314 2.686-6 6-6h14.667zm0 1.333H6c-2.577 0-4.667 2.09-4.667 4.667v14.667c0 2.577 2.09 4.666 4.667 4.666h14.667c2.577 0 4.666-2.089 4.666-4.666V6c0-2.577-2.089-4.667-4.666-4.667zm-12 9.333c.368 0 .666.298.666.666v10.672c0 .368-.298.666-.666.666h-4c-.369 0-.667-.298-.667-.666V11.332c0-.368.298-.666.667-.666h4zm9.671.017c2.483 0 4.332 2 4.332 4.54v6.78c0 .369-.298.667-.666.667h-3.666c-.368 0-.666-.298-.666-.666v-5.812c0-.569-.513-1.014-1.014-1.014-.532 0-1.11.468-1.11 1.014v5.812c0 .368-.298.666-.666.666h-3.55c-.368 0-.666-.298-.666-.666V11.349c0-.368.298-.666.666-.666h3.55c.315 0 .58.219.649.513.927-.435 1.778-.59 2.807-.513zM8 11.999H5.333v9.338H8v-9.338zm7.237.883c-.444.28-1.022-.04-1.022-.564v-.302H12v9.321h2.216v-5.145c0-1.351 1.23-2.347 2.443-2.347 1.2 0 2.347.997 2.347 2.347v5.145h2.332v-6.113c0-1.827-1.277-3.208-3.047-3.21-1.129-.082-1.918.153-3.053.868zM6.667 4c1.472 0 2.666 1.194 2.666 2.667 0 1.472-1.194 2.666-2.666 2.666C5.194 9.333 4 8.14 4 6.667 4 5.194 5.194 4 6.667 4zm0 1.333c-.737 0-1.334.597-1.334 1.334C5.333 7.403 5.93 8 6.667 8 7.403 8 8 7.403 8 6.667c0-.737-.597-1.334-1.333-1.334z"/>
    </defs>
    <g fill="none" fill-rule="evenodd" transform="translate(2.667 2.667)">
        <use fill="#FFF" xlink:href="#prefix__a"/>
    </g>
</svg>
