<svg xmlns="http://www.w3.org/2000/svg" xmlns:xlink="http://www.w3.org/1999/xlink" width="32" height="32" viewBox="0 0 32 32">
    <defs>
        <path id="prefix__a" d="M20.667 0c3.313 0 6 2.686 6 6v14.667c0 3.313-2.687 6-6 6H6c-3.314 0-6-2.687-6-6V6c0-3.314 2.686-6 6-6h14.667zm0 1.333H6c-2.577 0-4.667 2.09-4.667 4.667v14.667c0 2.577 2.09 4.666 4.667 4.666h14.667c2.577 0 4.666-2.089 4.666-4.666V6c0-2.577-2.089-4.667-4.666-4.667zm-1.233 5.554c1.532.147 2.77 1.31 3.009 2.844.298 2.392.298 4.812 0 7.205-.239 1.535-1.477 2.697-3.025 2.845-4.051.292-8.118.292-12.183-.001-1.535-.144-2.776-1.308-3.01-2.844-.3-2.395-.3-4.818.002-7.233.237-1.514 1.477-2.673 3.022-2.817 4.051-.292 8.118-.292 12.185.001zM7.359 8.214c-.925.087-1.672.785-1.812 1.674-.285 2.286-.285 4.597-.002 6.864.14.912.887 1.613 1.8 1.7 3.987.287 7.99.287 11.961 0 .924-.088 1.67-.785 1.815-1.692.284-2.28.283-4.585.002-6.844-.142-.912-.89-1.613-1.801-1.7-3.987-.288-7.99-.288-11.963-.002zm4.237 2.507l4.667 2c.538.23.538.994 0 1.225l-4.667 2c-.44.189-.93-.134-.93-.613v-4c0-.478.49-.801.93-.612zM12 12.344v1.978l2.308-.989L12 12.344z"/>
    </defs>
    <g fill="none" fill-rule="evenodd" transform="translate(2.667 2.667)">
        <use fill="#FFF" xlink:href="#prefix__a"/>
    </g>
</svg>
