<svg xmlns="http://www.w3.org/2000/svg" xmlns:xlink="http://www.w3.org/1999/xlink" width="32" height="32" viewBox="0 0 32 32">
    <defs>
        <path id="prefix__a" d="M20.667 0c3.313 0 6 2.686 6 6v14.667c0 3.313-2.687 6-6 6H6c-3.314 0-6-2.687-6-6V6c0-3.314 2.686-6 6-6h14.667zm0 1.333H6c-2.577 0-4.667 2.09-4.667 4.667v14.667c0 2.577 2.09 4.666 4.667 4.666h14.667c2.577 0 4.666-2.089 4.666-4.666V6c0-2.577-2.089-4.667-4.666-4.667zM18 4c.368 0 .667.298.667.667v2.6c0 .368-.299.666-.667.666h-1.51c-.889 0-1.217.256-1.217.85v2.15h2.49c.453 0 .774.443.633.874l-.848 2.6c-.09.274-.346.46-.634.46h-1.641V22c0 .368-.299.667-.667.667h-2.545c-.369 0-.667-.299-.667-.667v-7.133H8.667c-.369 0-.667-.299-.667-.667v-2.6c0-.368.298-.667.667-.667h2.727v-2.83c.103-2.306 1.979-4.122 4.247-4.103H18zm-.667 1.333h-1.697c-1.55-.013-2.839 1.234-2.909 2.8V11.6c0 .368-.298.667-.666.667H9.333v1.266h2.728c.368 0 .666.299.666.667v7.133h1.212V14.2c0-.368.299-.667.667-.667h1.824l.414-1.266h-2.238c-.368 0-.667-.299-.667-.667V8.783c0-1.414.988-2.183 2.55-2.183h.844V5.333z"/>
    </defs>
    <g fill="none" fill-rule="evenodd" transform="translate(2.667 2.667)">
        <use fill="#FFF" xlink:href="#prefix__a"/>
    </g>
</svg>
