<?xml version="1.0" encoding="UTF-8"?>
<svg width="32px" height="32px" viewBox="0 0 32 32" version="1.1" xmlns="http://www.w3.org/2000/svg" xmlns:xlink="http://www.w3.org/1999/xlink">
    <title>Twitter Logo</title>
    <g id="Artboard-Copy-3" stroke="none" stroke-width="1" fill="none" fill-rule="evenodd">
        <g id="Group" transform="translate(3.000000, 3.000000)" fill="#FFFFFF">
            <path d="M20.150117,0 C23.3808124,0 26,2.61918762 26,5.849883 L26,20.150117 C26,23.3808124 23.3808124,26 20.150117,26 L5.849883,26 C2.61918762,26 0,23.3808124 0,20.150117 L0,5.849883 C0,2.61918762 2.61918762,0 5.849883,0 L20.150117,0 Z M20.150117,1.300234 L5.849883,1.300234 C3.33755325,1.300234 1.300234,3.33755325 1.300234,5.849883 L1.300234,20.150117 C1.300234,22.6624468 3.33755325,24.699766 5.849883,24.699766 L20.150117,24.699766 C22.6624468,24.699766 24.699766,22.6624468 24.699766,20.150117 L24.699766,5.849883 C24.699766,3.33755325 22.6624468,1.300234 20.150117,1.300234 Z" id="Shape-Copy-2" fill-rule="nonzero"></path>
            <path d="M7.27112312,3.12101896 L8.12353644,3.12125735 C8.40179083,3.1205936 8.67136144,3.11901661 8.92384708,3.11601631 C9.43806968,3.12618807 9.69318752,3.43492271 9.88309263,3.72087252 C11.0732644,5.51596179 12.5507376,7.69079428 14.3155122,10.24537 C17.7757873,6.17757319 19.6862772,3.93677867 20.046982,3.52298641 C20.2410464,3.30036015 20.2862567,3.13310849 20.6807493,3.13192328 C20.9625297,3.1310767 21.1240141,3.12628044 21.2738459,3.12471102 L21.4550038,3.1248359 C21.8508498,3.13025189 21.8172609,3.44075493 21.5480075,3.74744511 C21.5206919,3.77855861 21.4473444,3.86385106 21.3279649,4.00332246 L21.2143664,4.13613769 C20.4443251,5.03698621 18.3882066,7.45152833 15.0460111,11.379764 C18.1932893,16.1600974 20.496276,19.5918403 21.9549714,21.6749926 C22.2194688,22.0527195 21.9429662,22.6005288 21.5298524,22.5991644 C21.001295,22.5974187 20.1147103,22.5942189 19.2419799,22.5927877 L17.7126373,22.5929634 C17.0179704,22.5949572 16.7485161,22.1555926 16.5077348,21.8320423 C16.3883731,21.6716498 15.5272717,20.3889115 13.9244307,17.9838274 L13.5822247,17.4702093 C13.3470316,17.117121 13.0977269,16.7426801 12.8343107,16.3468865 L12.4286026,15.7371818 C12.2898387,15.5286087 12.1475469,15.3146975 12.0017272,15.0954482 C10.0103251,17.3345575 7.96885373,19.6859673 5.87731318,22.1496777 C5.75353441,22.2954817 5.56620601,22.6099136 5.16733113,22.6093724 C4.76845625,22.6086465 4.89357983,22.602873 4.40795594,22.5985355 C4.16207376,22.5963394 4.11384208,22.3248636 4.31496211,22.0941615 C5.13917381,21.1487194 7.4362202,18.4563426 11.2061013,14.0170311 C7.95773885,9.36707861 5.72180634,6.09423088 4.49830373,4.19848789 C4.26432186,3.84711899 4.31242033,3.25783718 4.90533811,3.11803096 C5.54525518,3.11347441 6.40946083,3.11906097 7.27112312,3.12101896 Z M8.67545151,4.50828632 L6.19762729,4.50828632 L17.8813811,21.4096688 L20.3485007,21.4096688 L8.67545151,4.50828632 Z" id="Combined-Shape"></path>
        </g>
    </g>
</svg>