<?xml version="1.0" encoding="UTF-8"?>
<svg width="62px" height="62px" viewBox="0 0 62 62" version="1.1" xmlns="http://www.w3.org/2000/svg" xmlns:xlink="http://www.w3.org/1999/xlink">
    <title>Icons / Banking / ic_bill_payment</title>
    <g id="LP-V2" stroke="none" stroke-width="1" fill="none" fill-rule="evenodd">
        <g id="Desk_V2" transform="translate(-1097.000000, -2045.000000)" fill="#CC0000" fill-rule="nonzero">
            <g id="Icons-/-Banking-/-ic_bill_payment" transform="translate(1097.980929, 2045.989140)">
                <path d="M58.3714749,39.979614 C59.2919494,39.979614 60.0381415,40.7258061 60.0381415,41.6462807 L60.0381415,48.428386 C60.0381415,54.8328292 54.801247,60.0217193 48.3519323,60.0217193 L41.72029,60.0217193 C40.7998155,60.0217193 40.0536234,59.2755272 40.0536234,58.3550526 C40.0536234,57.4345781 40.7998155,56.688386 41.72029,56.688386 L48.3519323,56.688386 C52.9671343,56.688386 56.7048082,52.9849737 56.7048082,48.428386 L56.7048082,41.6462807 C56.7048082,40.7258061 57.4510003,39.979614 58.3714749,39.979614 Z M45.0035147,13.334 C45.9239893,13.334 46.6701814,14.0801921 46.6701814,15.0006667 L46.6701814,45.0006667 C46.6701814,45.9211412 45.9239893,46.6673333 45.0035147,46.6673333 C44.0830401,46.6673333 43.3368481,45.9211412 43.3368481,45.0006667 L43.3368481,15.0006667 C43.3368481,14.0801921 44.0830401,13.334 45.0035147,13.334 Z M48.3519323,0 C54.801247,0 60.0381415,5.18889008 60.0381415,11.5933333 L60.0381415,18.3754386 C60.0381415,19.2959132 59.2919494,20.0421053 58.3714749,20.0421053 C57.4510003,20.0421053 56.7048082,19.2959132 56.7048082,18.3754386 L56.7048082,11.5933333 C56.7048082,7.0367456 52.9671343,3.33333333 48.3519323,3.33333333 L41.72029,3.33333333 C40.7998155,3.33333333 40.0536234,2.58714125 40.0536234,1.66666667 C40.0536234,0.746192084 40.7998155,0 41.72029,0 L48.3519323,0 Z M1.66666667,39.979614 C2.58714125,39.979614 3.33333333,40.7258061 3.33333333,41.6462807 L3.33333333,48.428386 C3.33333333,52.9849737 7.07100728,56.688386 11.6862092,56.688386 L18.3178515,56.688386 C19.2383261,56.688386 19.9845182,57.4345781 19.9845182,58.3550526 C19.9845182,59.2755272 19.2383261,60.0217193 18.3178515,60.0217193 L11.6862092,60.0217193 C5.23689448,60.0217193 0,54.8328292 0,48.428386 L0,41.6462807 C0,40.7258061 0.746192084,39.979614 1.66666667,39.979614 Z M15.0134067,13.334 C15.9338812,13.334 16.6800733,14.0801921 16.6800733,15.0006667 L16.6800733,45.0006667 C16.6800733,45.9211412 15.9338812,46.6673333 15.0134067,46.6673333 C14.0929321,46.6673333 13.34674,45.9211412 13.34674,45.0006667 L13.34674,15.0006667 C13.34674,14.0801921 14.0929321,13.334 15.0134067,13.334 Z M18.3178515,0 C19.2383261,0 19.9845182,0.746192084 19.9845182,1.66666667 C19.9845182,2.58714125 19.2383261,3.33333333 18.3178515,3.33333333 L11.6862092,3.33333333 C7.07100728,3.33333333 3.33333333,7.0367456 3.33333333,11.5933333 L3.33333333,18.3754386 C3.33333333,19.2959132 2.58714125,20.0421053 1.66666667,20.0421053 C0.746192084,20.0421053 0,19.2959132 0,18.3754386 L0,11.5933333 C0,5.18889008 5.23689448,0 11.6862092,0 L18.3178515,0 Z M40.0134067,45.0006667 L40.0134067,15.0006667 C40.0134067,14.0801921 39.2672146,13.334 38.34674,13.334 C37.4262654,13.334 36.6800733,14.0801921 36.6800733,15.0006667 L36.6800733,45.0006667 C36.6800733,45.9211412 37.4262654,46.6673333 38.34674,46.6673333 C39.2672146,46.6673333 40.0134067,45.9211412 40.0134067,45.0006667 Z M20.0134067,15.0006667 L20.0134067,45.0006667 C20.0134067,45.9211412 20.7595987,46.6673333 21.6800733,46.6673333 C22.6005479,46.6673333 23.34674,45.9211412 23.34674,45.0006667 L23.34674,15.0006667 C23.34674,14.0801921 22.6005479,13.334 21.6800733,13.334 C20.7595987,13.334 20.0134067,14.0801921 20.0134067,15.0006667 Z M30.0134067,15.0006667 L30.0134067,45.0006667 C30.0134067,45.9211412 30.7595987,46.6673333 31.6800733,46.6673333 C32.6005479,46.6673333 33.34674,45.9211412 33.34674,45.0006667 L33.34674,15.0006667 C33.34674,14.0801921 32.6005479,13.334 31.6800733,13.334 C30.7595987,13.334 30.0134067,14.0801921 30.0134067,15.0006667 Z" id="Icon"></path>
            </g>
        </g>
    </g>
</svg>