<?xml version="1.0" encoding="UTF-8"?>
<svg width="24px" height="24px" viewBox="0 0 24 24" version="1.1" xmlns="http://www.w3.org/2000/svg" xmlns:xlink="http://www.w3.org/1999/xlink">
    <title>Icons / Documents / ic_card_invoice_48</title>
    <g id="Icons-/-Documents-/-ic_card_invoice" stroke="none" stroke-width="1" fill="none" fill-rule="evenodd">
        <path d="M10.477,2 C10.5831004,2 10.6857234,2.03372295 10.7705394,2.09523248 L10.8305886,2.14648186 L15.8455886,7.16248186 C15.9201909,7.23709895 15.9687898,7.33287949 15.9855176,7.43573542 L15.9919959,7.51398389 L16,9.49798389 C16.0011094,9.77412402 15.7781562,9.99888247 15.5020161,10 C15.2565582,10.0009861 15.0516982,9.82493519 15.0084192,9.59185854 L15,9.50201611 L14.993,8 L10.523,8 C10.2775401,8 10.0733916,7.82312484 10.0310557,7.58987563 L10.023,7.5 L10.023,3 L3,3 L3,21 L9.5,21 C9.77614237,21 10,21.2238576 10,21.5 C10,21.7454599 9.82312484,21.9496084 9.58987563,21.9919443 L9.5,22 L2.5,22 C2.25454011,22 2.05039163,21.8231248 2.00805567,21.5898756 L2,21.5 L2,2.5 C2,2.25454011 2.17687516,2.05039163 2.41012437,2.00805567 L2.5,2 L10.477,2 Z M20.5765684,11.0008818 C21.3799512,11.0008818 21.9999368,11.7148935 21.9999368,12.5642869 L21.9999368,12.5642869 L21.999,17.488 L22,17.4989205 C22,17.5023297 21.9999659,17.5057309 21.999898,17.5091238 L21.9999368,18.4384728 C21.9999368,19.2878662 21.3799512,20.001878 20.5765684,20.001878 L20.5765684,20.001878 L10.4233053,20.001878 C9.61992247,20.001878 8.99993684,19.2878662 8.99993684,18.4384728 L8.99993684,18.4384728 L8.99993684,12.5642869 C8.99993684,11.7148935 9.61992247,11.0008818 10.4233053,11.0008818 L10.4233053,11.0008818 Z M20.999,17.998 L9.999,17.998 L9.99993684,18.4384728 C9.99993684,18.7282735 10.1627968,18.9480326 10.3515687,18.9932902 L10.4233053,19.001878 L20.5765684,19.001878 C20.7938172,19.001878 20.9999368,18.7644985 20.9999368,18.4384728 L20.9999368,18.4384728 L20.999,17.998 Z M20.999,16.001 L9.999,16.001 L9.999,16.998 L20.999,16.998 L20.999,16.001 Z M20.5765684,12.0008818 L10.4233053,12.0008818 C10.2060565,12.0008818 9.99993684,12.2382612 9.99993684,12.5642869 L9.99993684,12.5642869 L9.999,15.001 L20.999,15.001 L20.9999368,12.5642869 C20.9999368,12.2744863 20.8370769,12.0547272 20.648305,12.0094696 L20.5765684,12.0008818 Z M11.023,3.754 L11.023,7 L14.269,7 L11.023,3.754 Z" id="Icon" fill="#CC0000"></path>
    </g>
</svg>