<?xml version="1.0" encoding="UTF-8"?>
<svg width="54px" height="68px" viewBox="0 0 54 68" version="1.1" xmlns="http://www.w3.org/2000/svg" xmlns:xlink="http://www.w3.org/1999/xlink">
    <title>Icons / Documents / ic_copy</title>
    <g id="LP-V2" stroke="none" stroke-width="1" fill="none" fill-rule="evenodd">
        <g id="Desk_V2" transform="translate(-710.000000, -2042.000000)" fill="#CC0000" fill-rule="nonzero">
            <g id="Icons-/-Documents-/-ic_copy" transform="translate(710.333333, 2042.666667)">
                <path d="M41.6666667,0 C42.5871412,0 43.3333333,0.746192084 43.3333333,1.66666667 L43.333,13.333 L51.6666667,13.3333333 C52.5386952,13.3333333 53.254304,14.0030459 53.3272157,14.8561936 L53.3333333,15 L53.3333333,65 C53.3333333,65.9204746 52.5871412,66.6666667 51.6666667,66.6666667 L11.6666667,66.6666667 C10.7461921,66.6666667 10,65.9204746 10,65 L10,53.333 L1.66666667,53.3333333 C0.794638114,53.3333333 0.0790293121,52.6636208 0.00611766135,51.810473 L0,51.6666667 L0,1.66666667 C0,0.746192084 0.746192084,0 1.66666667,0 L41.6666667,0 Z M50,16.6666667 L13.3333333,16.6666667 L13.3333333,63.3333333 L50,63.3333333 L50,16.6666667 Z M40,3.33333333 L3.33333333,3.33333333 L3.33333333,50 L10,50 L10,15 C10,14.1279714 10.6697126,13.4123626 11.5228603,13.339451 L11.6666667,13.3333333 L40,13.333 L40,3.33333333 Z M41.6666667,43.3333333 C42.5871412,43.3333333 43.3333333,44.0795254 43.3333333,45 C43.3333333,45.9204746 42.5871412,46.6666667 41.6666667,46.6666667 L21.6666667,46.6666667 C20.7461921,46.6666667 20,45.9204746 20,45 C20,44.0795254 20.7461921,43.3333333 21.6666667,43.3333333 Z M41.6666667,33.3333333 C42.5871412,33.3333333 43.3333333,34.0795254 43.3333333,35 C43.3333333,35.9204746 42.5871412,36.6666667 41.6666667,36.6666667 L21.6666667,36.6666667 C20.7461921,36.6666667 20,35.9204746 20,35 C20,34.0795254 20.7461921,33.3333333 21.6666667,33.3333333 Z M41.6666667,23.3333333 C42.5871412,23.3333333 43.3333333,24.0795254 43.3333333,25 C43.3333333,25.9204746 42.5871412,26.6666667 41.6666667,26.6666667 L21.6666667,26.6666667 C20.7461921,26.6666667 20,25.9204746 20,25 C20,24.0795254 20.7461921,23.3333333 21.6666667,23.3333333 L41.6666667,23.3333333 Z" id="Icon"></path>
            </g>
        </g>
    </g>
</svg>