<?xml version="1.0" encoding="UTF-8"?>
<svg width="66.6664561px" height="66.6666667px" viewBox="0 0 66.6664561 66.6666667" version="1.1" xmlns="http://www.w3.org/2000/svg" xmlns:xlink="http://www.w3.org/1999/xlink">
    <title>Icons / Documents / ic_card_invoice</title>
    <g id="LP-V2" stroke="none" stroke-width="1" fill="none" fill-rule="evenodd">
        <g id="Desk_V2" transform="translate(-312.666667, -2042.666667)" fill="#CC0000" fill-rule="nonzero">
            <g id="Icons-/-Documents-/-ic_card_invoice" transform="translate(312.666667, 2042.666667)">
                <path d="M28.2566667,0 C28.6987517,0 29.1227253,0.175640353 29.4352954,0.488272857 L46.1519621,17.2082729 C46.4628047,17.5191774 46.6382137,17.9403082 46.6399865,18.3799463 L46.666667,24.9932796 C46.6703647,25.9137467 45.9271875,26.6629416 45.0067204,26.6666531 C44.0862533,26.6703647 43.3370584,25.9271875 43.3333469,25.0067204 L43.313,20 L28.41,20 C27.5379714,20 26.8223626,19.3302874 26.749451,18.4771397 L26.7433333,18.3333333 L26.743,3.333 L3.33333333,3.33333333 L3.33333333,63.3333333 L25,63.3333333 C25.9204746,63.3333333 26.6666667,64.0795254 26.6666667,65 C26.6666667,65.9204746 25.9204746,66.6666667 25,66.6666667 L1.66666667,66.6666667 C0.746192084,66.6666667 0,65.9204746 0,65 L0,1.66666667 C0,0.746192084 0.746192084,0 1.66666667,0 L28.2566667,0 Z M61.9218947,30.0029393 C64.5998374,30.0029393 66.6664561,32.3829784 66.6664561,35.2142897 L66.6664561,54.7949095 C66.6664561,57.6262208 64.5998374,60.0062599 61.9218947,60.0062599 L28.0776842,60.0062599 C25.3997416,60.0062599 23.3331228,57.6262208 23.3331228,54.7949095 L23.3331228,35.2142897 C23.3331228,32.3829784 25.3997416,30.0029393 28.0776842,30.0029393 Z M63.333,53.329 L26.666,53.329 L26.6664561,54.7949095 C26.6664561,55.8244643 27.2831021,56.588817 27.9637458,56.6664233 L28.0776842,56.6729266 L61.9218947,56.6729266 C62.6460573,56.6729266 63.3331228,55.8816618 63.3331228,54.7949095 L63.333,53.329 Z M63.333,46.671 L26.666,46.671 L26.666,49.996 L63.333,49.996 L63.333,46.671 Z M61.9218947,33.3362726 L28.0776842,33.3362726 C27.3535216,33.3362726 26.6664561,34.1275374 26.6664561,35.2142897 L26.666,43.337 L63.333,43.337 L63.3331228,35.2142897 C63.3331228,34.1847349 62.7164768,33.4203822 62.0358332,33.3427759 L61.9218947,33.3362726 Z M30.076,5.843 L30.0766667,16.6666667 L40.896,16.666 L30.076,5.843 Z" id="Icon"></path>
            </g>
        </g>
    </g>
</svg>