<?xml version="1.0" encoding="UTF-8"?>
<svg width="24px" height="24px" viewBox="0 0 24 24" version="1.1" xmlns="http://www.w3.org/2000/svg" xmlns:xlink="http://www.w3.org/1999/xlink">
    <title>Icons / Banking / ic_exchange_48</title>
    <g id="Icons-/-Banking-/-ic_exchange" stroke="none" stroke-width="1" fill="none" fill-rule="evenodd">
        <path d="M12.502,1.99719022 C17.7552258,1.99719022 22.002,6.48113191 22.002,12.0001902 C22.002,15.4885781 20.326673,19.1337696 17.8479197,21.0040389 L19.5159368,21.0028098 C19.7920792,21.0028098 20.0159368,21.2266674 20.0159368,21.5028098 C20.0159368,21.7482697 19.8390617,21.9524182 19.6058125,21.9947541 L19.5159368,22.0028098 L16.5075778,22.0028098 C16.2621179,22.0028098 16.0579694,21.8259346 16.0156334,21.5926854 L16.0075778,21.5028098 L16.0075778,18.5054252 C16.0075778,18.2292828 16.2314354,18.0054252 16.5075778,18.0054252 C16.7530377,18.0054252 16.9571861,18.1823003 16.9995221,18.4155496 L17.0075778,18.5054252 L17.00818,20.3767 C19.3486477,18.7733547 21.002,15.3020505 21.002,12.0001902 C21.002,7.02163001 17.1904234,2.99719022 12.502,2.99719022 C12.2258576,2.99719022 12.002,2.77333259 12.002,2.49719022 C12.002,2.22104784 12.2258576,1.99719022 12.502,1.99719022 Z M7.50867843,1.99719022 C7.75413832,1.99719022 7.9582868,2.17406538 8.00062276,2.40731458 L8.00867843,2.49719022 L8.00867843,5.49457481 C8.00867843,5.77071719 7.7848208,5.99457481 7.50867843,5.99457481 C7.26321854,5.99457481 7.05907006,5.81769965 7.0167341,5.58445044 L7.00867843,5.49457481 L7.00834854,3.34793145 C4.65939604,4.97094469 2.998,8.50283294 2.998,11.8626982 C2.998,16.9184773 6.81128243,21.0028098 11.498,21.0028098 C11.7741424,21.0028098 11.998,21.2266674 11.998,21.5028098 C11.998,21.7789522 11.7741424,22.0028098 11.498,22.0028098 C6.24306837,22.0028098 1.998,17.4559998 1.998,11.8626982 C1.998,8.48317999 3.52782293,4.95782904 5.82715208,2.99729359 L4.49393548,2.99719022 C4.21779311,2.99719022 3.99393548,2.77333259 3.99393548,2.49719022 C3.99393548,2.25173033 4.17081064,2.04758184 4.40405985,2.00524588 L4.49393548,1.99719022 L7.50867843,1.99719022 Z M12.0063,5.97559022 C15.3337738,5.97559022 18.0313,8.6727792 18.0313,12.0005902 C18.0313,15.3284012 15.3337738,18.0255902 12.0063,18.0255902 C8.67799481,18.0255902 5.9803,15.3285698 5.9803,12.0005902 C5.9803,8.6726106 8.67799481,5.97559022 12.0063,5.97559022 Z M13.5974606,13.9910186 L10.4192931,13.9908679 C10.7041856,15.1865868 11.2531447,16.2828281 12.0655534,17.0952368 L11.998,17.0251902 L12.0134071,17.0269557 C12.7922786,16.2191949 13.3200089,15.1514278 13.5974606,13.9910186 Z M9.39474425,13.9905194 L7.39001176,13.9913084 C7.97247435,15.3398953 9.12877022,16.3825586 10.5513689,16.8118904 C9.99589543,15.9802375 9.61053313,15.011867 9.39474425,13.9905194 Z M16.6216252,13.9912487 L14.6221967,13.9907904 C14.4060013,15.0111507 14.0196187,15.9792466 13.4626118,16.8126249 C14.8841563,16.3815561 16.039495,15.3391945 16.6216252,13.9912487 Z M9.23894178,11.0092601 L7.07810266,11.0089872 C7.01395193,11.3295488 6.9803,11.6611337 6.9803,12.0005902 C6.9803,12.3396938 7.01388201,12.6709423 7.07790271,12.9911936 L9.23907497,12.9904618 C9.17218943,12.3335232 9.17212127,11.6662688 9.23894178,11.0092601 Z M13.7719805,11.0095278 L10.2445205,11.0098967 C10.1702149,11.6657299 10.170334,12.3352725 10.2447857,12.9910178 L13.7725349,12.9906094 C13.8470814,12.334711 13.8468496,11.6652261 13.7719805,11.0095278 Z M16.9335047,11.0090269 L14.7777112,11.0096497 C14.8449707,11.6665698 14.8451671,12.3338104 14.7781921,12.9909009 L16.9337046,12.9911538 C16.9977201,12.6709121 17.0313,12.3396766 17.0313,12.0005902 C17.0313,11.6611509 16.9976502,11.329579 16.9335047,11.0090269 Z M10.5502932,7.18889181 L10.5364903,7.19380558 C9.12082064,7.62586637 7.97062273,8.66582664 7.39014825,10.009556 L9.39441055,10.0098724 C9.6099813,8.98920971 9.99517965,8.02122659 10.5502932,7.18889181 Z M12.012,6.97519022 L11.9986257,6.97449787 C11.2221439,7.77997563 10.6958187,8.84775404 10.4190853,10.0090642 L13.596553,10.0095652 C13.3106222,8.81527662 12.7602612,7.71995564 11.9464123,6.90640933 L12.012,6.97519022 Z M13.4628138,7.18990097 L13.4950443,7.23850114 C14.0334357,8.05963355 14.4089942,9.00933088 14.621307,10.009751 L16.6214887,10.0096157 C16.0393144,8.66182305 14.8840453,7.61959071 13.4628138,7.18990097 Z" id="Icon" fill="#CC0000"></path>
    </g>
</svg>