<?xml version="1.0" encoding="UTF-8"?>
<svg width="24px" height="24px" viewBox="0 0 24 24" version="1.1" xmlns="http://www.w3.org/2000/svg" xmlns:xlink="http://www.w3.org/1999/xlink">
    <title>Icons / Banking / ic_exchange_currency_48</title>
    <g id="Icons-/-Banking-/-ic_exchange_currency" stroke="none" stroke-width="1" fill="none" fill-rule="evenodd">
        <path d="M16.75,11.5024 C19.6494715,11.5024 22,13.8525867 22,16.7524 C22,19.6522133 19.6494715,22.0024 16.75,22.0024 C13.8505285,22.0024 11.5,19.6522133 11.5,16.7524 C11.5,13.8525867 13.8505285,11.5024 16.75,11.5024 Z M3.5,13.0024 C3.77614237,13.0024 4,13.2262576 4,13.5024 C4,16.5624742 6.47635889,19.0394 9.536,19.0394 L9.33,19.0351 L8.15810266,17.8564063 C7.98505032,17.6823275 7.96656197,17.4128472 8.10213368,17.2183792 L8.16019365,17.1493027 C8.35603235,16.9546188 8.67261346,16.9555549 8.86729734,17.1513937 L8.86729734,17.1513937 L10.8902973,19.1863937 C11.0849934,19.3822446 11.0840432,19.6988498 10.8881749,19.8935286 L10.8881749,19.8935286 L8.91217494,21.8575286 C8.716319,22.0521951 8.39973798,22.0512309 8.20507144,21.8553749 C8.01040491,21.659519 8.01136911,21.342938 8.20722506,21.1482714 L8.20722506,21.1482714 L9.32639779,20.0361085 C5.81157624,19.9255658 3,17.0445691 3,13.5024 C3,13.2262576 3.22385763,13.0024 3.5,13.0024 Z M16.75,12.5024 C14.4027807,12.5024 12.5,14.404904 12.5,16.7524 C12.5,19.099896 14.4027807,21.0024 16.75,21.0024 C19.0972193,21.0024 21,19.099896 21,16.7524 C21,14.404904 19.0972193,12.5024 16.75,12.5024 Z M16.7324,13.1912 C17.0085424,13.1912 17.2324,13.4150576 17.2324,13.6912 L17.2324,13.6912 L17.232594,14.0770786 C17.4235609,14.1179187 17.6128199,14.1765046 17.7988624,14.249137 C18.0235915,14.336873 18.197671,14.4258623 18.3046421,14.4905536 C18.5409352,14.633453 18.6166457,14.9408491 18.4737464,15.1771421 C18.330847,15.4134352 18.0234509,15.4891457 17.7871579,15.3462464 C17.725879,15.3091877 17.601396,15.245552 17.4351876,15.180663 C17.1628407,15.0743367 16.8873575,15.0114 16.6339,15.0114 C16.1437826,15.0114 15.8329,15.2250505 15.8329,15.4674 C15.8329,15.7572224 16.0998029,15.9527862 16.9729702,16.2985149 L16.9729702,16.2985149 L17.0640038,16.3345246 C18.2802021,16.8157986 18.7449,17.1447847 18.7449,17.9634 C18.7449,18.8049318 18.1471219,19.3189727 17.2323082,19.4549861 L17.2324,19.8134 C17.2324,20.0895424 17.0085424,20.3134 16.7324,20.3134 C16.4562576,20.3134 16.2324,20.0895424 16.2324,19.8134 L16.2324,19.8134 L16.2313058,19.4595793 C15.9140496,19.4163995 15.632335,19.3308117 15.3865004,19.2122843 C15.151956,19.0992004 14.9898036,18.9777185 14.8951317,18.8796273 C14.7033634,18.6809328 14.7089782,18.3644001 14.9076727,18.1726317 C15.1063672,17.9808634 15.4228999,17.9864782 15.6146683,18.1851727 C15.6307464,18.2018315 15.698344,18.2524746 15.8207996,18.3115157 C16.0512144,18.4226085 16.3464632,18.4914 16.7159,18.4914 C17.4309721,18.4914 17.7449,18.2881575 17.7449,17.9634 C17.7449,17.7540927 17.5057447,17.5847811 16.6960465,17.2643673 L16.6960465,17.2643673 L16.6048298,17.2282851 C15.3415076,16.7280755 14.8329,16.3554109 14.8329,15.4674 C14.8329,14.7010241 15.4393087,14.176531 16.2318432,14.0442009 L16.2324,13.6912 C16.2324,13.4150576 16.4562576,13.1912 16.7324,13.1912 Z M7.25,2.0024 C10.1494715,2.0024 12.5,4.3525867 12.5,7.2524 C12.5,10.1522133 10.1494715,12.5024 7.25,12.5024 C4.3505285,12.5024 2,10.1522133 2,7.2524 C2,4.3525867 4.3505285,2.0024 7.25,2.0024 Z M7.25,3.0024 C4.90278069,3.0024 3,4.90490401 3,7.2524 C3,9.59989599 4.90278069,11.5024 7.25,11.5024 C9.59721931,11.5024 11.5,9.59989599 11.5,7.2524 C11.5,4.90490401 9.59721931,3.0024 7.25,3.0024 Z M15.0898251,2.14247144 C15.285681,1.94780491 15.602262,1.94876911 15.7969286,2.14462506 C15.9915951,2.340481 15.9906309,2.65706202 15.7947749,2.85172856 L15.7947749,2.85172856 L14.6757645,3.96379371 C18.1914419,4.07435421 21.002,6.954386 21.002,10.4975 C21.002,10.7736424 20.7781424,10.9975 20.502,10.9975 C20.2258576,10.9975 20.002,10.7736424 20.002,10.4975 C20.002,7.43642574 17.526641,4.9605 14.466,4.9605 L14.671,4.96409999 L15.8438973,6.14359365 C16.0169497,6.3176725 16.035438,6.58715275 15.8998663,6.78162084 L15.8418063,6.85069734 C15.6459676,7.04538122 15.3293865,7.04444505 15.1347027,6.84860635 L15.1347027,6.84860635 L13.1117027,4.81360635 C12.9170066,4.61775538 12.9179568,4.30115017 13.1138251,4.10647144 L13.1138251,4.10647144 Z M7.7361,7.707 C8.01224237,7.707 8.2361,7.93085763 8.2361,8.207 C8.2361,8.48314237 8.01224237,8.707 7.7361,8.707 L7.7361,8.707 L5.8990683,8.70754376 C6.24573928,9.22628368 6.75268617,9.4888 7.4686,9.4888 C7.99441206,9.4888 8.26340179,9.3732715 8.79514245,8.96295195 C9.01376329,8.7942524 9.32774851,8.8347216 9.49644805,9.05334245 C9.6651476,9.27196329 9.6246784,9.58594851 9.40605755,9.75464805 C8.71450457,10.2882874 8.24764278,10.4888 7.4686,10.4888 C6.16152129,10.4888 5.25966327,9.83767838 4.76785991,8.70739979 L4.2871,8.707 C4.01095763,8.707 3.7871,8.48314237 3.7871,8.207 C3.7871,7.93085763 4.01095763,7.707 4.2871,7.707 L4.2871,7.707 Z M7.4686,4.016 C8.24764278,4.016 8.71450457,4.21651263 9.40605755,4.75015195 C9.6246784,4.91885149 9.6651476,5.23283671 9.49644805,5.45145755 C9.32774851,5.6700784 9.01376329,5.7105476 8.79514245,5.54184805 C8.26340179,5.1315285 7.99441206,5.016 7.4686,5.016 C6.62150588,5.016 6.06697477,5.38353452 5.72434601,6.10817916 L7.7361,6.1084 C8.01224237,6.1084 8.2361,6.33225763 8.2361,6.6084 C8.2361,6.88454237 8.01224237,7.1084 7.7361,7.1084 L7.7361,7.1084 L4.2871,7.1084 C4.01095763,7.1084 3.7871,6.88454237 3.7871,6.6084 C3.7871,6.33225763 4.01095763,6.1084 4.2871,6.1084 L4.2871,6.1084 L4.64702816,6.10832829 C5.10335105,4.78735298 6.04595263,4.016 7.4686,4.016 Z" id="Icon" fill="#CC0000"></path>
    </g>
</svg>