<?xml version="1.0" encoding="UTF-8"?><svg version="1.1" width="26px" height="26px" viewBox="0 0 26.0 26.0" xmlns="http://www.w3.org/2000/svg" xmlns:xlink="http://www.w3.org/1999/xlink"><defs><clipPath id="i0"><path d="M1366,0 L1366,4774 L0,4774 L0,0 L1366,0 Z"></path></clipPath><clipPath id="i1"><path d="M12.5,0 C14.2946795,0 15.9292787,0.902673433 16.8393982,2.3858333 L24.909433,15.2572393 C25.0924789,15.5491907 25.00363,15.9338997 24.7109834,16.1165109 C24.4183368,16.299122 24.0327119,16.2104842 23.849666,15.9185327 L21.252,11.776 L21.2523179,22.7458432 C21.2523179,23.9443667 20.287712,24.915944 19.0798025,24.994828 L18.9209286,25 L15.64,24.999 L15.6273179,25 L9.39,24.999 L9.37731786,25 L6.04285512,25 C4.7367703,25 3.69305162,23.9668356 3.75421465,22.7019002 L3.754,11.728 L1.15653135,15.9160289 C0.993037527,16.1795595 0.664675786,16.2791822 0.3866703,16.164356 L0.296162084,16.1180687 C0.00265306404,15.9368404 -0.0880186381,15.5525549 0.0936411687,15.2597431 L8.0791997,2.38807582 C8.98640621,0.913235117 10.6917762,0 12.5,0 Z M12.5,1.24703088 C11.1183706,1.24703088 9.8199895,1.94232121 9.14334075,3.04233675 L5.004,9.714 L5.00350548,22.7315944 C4.97820451,23.2609986 5.3761795,23.6919125 5.92340738,23.7470148 L6.04285512,23.7529691 L8.752,23.752 L8.75231786,15.6472684 C8.75231786,14.6633882 9.51373835,13.8569249 10.4807877,13.7823499 L10.6273179,13.7767221 L14.3773179,13.7767221 C15.4128518,13.7767221 16.2523179,14.6141942 16.2523179,15.6472684 L16.252,23.752 L18.9209286,23.7529691 C19.4832746,23.7529691 19.9379183,23.3543967 19.9960381,22.854424 L20.0023179,22.7458432 L20.002,9.782 L15.7764721,3.04203389 C15.1297075,1.98808477 13.9969454,1.32383007 12.7257036,1.25327692 L12.5,1.24703088 Z M14.3773179,15.023753 L10.6273179,15.023753 C10.2821399,15.023753 10.0023179,15.3029103 10.0023179,15.6472684 L10.002,23.752 L15.002,23.752 L15.0023179,15.6472684 C15.0023179,15.3342156 14.77106,15.0750477 14.4696758,15.0305135 L14.3773179,15.023753 Z"></path></clipPath></defs><g transform="translate(-138.0 -1401.0)"><g clip-path="url(#i0)"><g transform="translate(136.0 1399.0)"><g transform="translate(2.4976835455399673 2.5)"><g clip-path="url(#i1)"><polygon points="0,0 25.0046329,0 25.0046329,25 0,25 0,0" stroke="none" fill="#CC0000"></polygon></g></g></g></g></g></svg>