<?xml version="1.0" encoding="UTF-8"?>
<svg width="24px" height="24px" viewBox="0 0 24 24" version="1.1" xmlns="http://www.w3.org/2000/svg" xmlns:xlink="http://www.w3.org/1999/xlink">
    <title>Icons / Banking / ic_investment_48</title>
    <g id="Icons-/-Banking-/-ic_investment" stroke="none" stroke-width="1" fill="none" fill-rule="evenodd">
        <path d="M6,8 C8.2431641,8 10,9.0981445 10,10.5 L10,10.5 L10,14.8450928 C10.7277222,14.328125 11.7865601,14 13,14 C15.2431641,14 17,15.0981445 17,16.5 L17,16.5 L17,19.5 C17,20.9018555 15.2431641,22 13,22 C11.4640503,22 10.1720581,21.4787598 9.5,20.7040405 C8.8279419,21.4787598 7.5359497,22 6,22 C3.7568359,22 2,20.9018555 2,19.5 L2,19.5 L2,10.5 C2,9.0981445 3.7568359,8 6,8 Z M9,18.1549072 C8.2722778,18.671875 7.2134399,19 6,19 C4.7865601,19 3.7277222,18.671875 3,18.1549072 L3,18.1549072 L3,19.5 C3,20.2094727 4.2319336,21 6,21 C7.7680664,21 9,20.2094727 9,19.5 L9,19.5 Z M16,18.1549072 C15.2722778,18.671875 14.2134399,19 13,19 C11.7865601,19 10.7277222,18.671875 10,18.1549072 L10,18.1549072 L10,19.5 C10,20.2094727 11.2319336,21 13,21 C14.7680664,21 16,20.2094727 16,19.5 L16,19.5 Z M9,15.1549072 C8.2722778,15.671875 7.2134399,16 6,16 C4.7865601,16 3.7277222,15.671875 3,15.1549072 L3,15.1549072 L3,16.5 C3,17.2094727 4.2319336,18 6,18 C7.7680664,18 9,17.2094727 9,16.5 L9,16.5 Z M13,15 C11.2319336,15 10,15.7905273 10,16.5 C10,17.2094727 11.2319336,18 13,18 C14.7680664,18 16,17.2094727 16,16.5 C16,15.7905273 14.7680664,15 13,15 Z M9,12.1549072 C8.2722778,12.671875 7.2134399,13 6,13 C4.7865601,13 3.7277222,12.671875 3,12.1549072 L3,12.1549072 L3,13.5 C3,14.2094727 4.2319336,15 6,15 C7.7680664,15 9,14.2094727 9,13.5 L9,13.5 Z M18.309082,2.03807034 C18.4312743,1.98730989 18.5687255,1.98730989 18.6909179,2.03807034 C18.7524414,2.06363452 18.8078613,2.10060138 18.854126,2.14719319 L18.854126,2.14719319 L21.8535156,5.15983872 C22.0488281,5.35601432 22.0488281,5.67381899 21.8535156,5.86999468 C21.7558594,5.96808258 21.6279297,6.01712647 21.5,6.01712647 C21.3720703,6.01712647 21.2441406,5.96808248 21.1464844,5.86999468 L21.1464844,5.86999468 L19,3.7140238 L19,11.2854246 L21.1464844,9.12945372 C21.3417968,8.93327803 21.6582031,8.93327813 21.8535156,9.12945372 C22.0488281,9.32562931 22.0488281,9.64343398 21.8535156,9.83960967 L21.8535156,9.83960967 L18.854126,12.8522552 C18.8078614,12.8988469 18.7524414,12.9358138 18.690918,12.961378 C18.6298218,12.9867581 18.5650635,13 18.5,13 C18.4349365,13 18.3701782,12.9867582 18.309082,12.961378 C18.2475586,12.9358138 18.1921386,12.8988469 18.145874,12.8522552 L18.145874,12.8522552 L15.1464844,9.83960967 C14.9511719,9.64343408 14.951172,9.32562941 15.1464844,9.12945372 C15.3417968,8.93327803 15.6582031,8.93327803 15.8535156,9.12945372 L15.8535156,9.12945372 L18,11.2854246 L18,3.7140237 L15.8535156,5.86999458 C15.6582032,6.06617027 15.3417969,6.06617017 15.1464844,5.86999458 C14.9511719,5.67381899 14.9511719,5.35601432 15.1464844,5.15983862 L15.1464844,5.15983862 L18.145874,2.14719309 C18.1921386,2.10060138 18.2475586,2.06363452 18.309082,2.03807034 Z M6,9 C4.2319336,9 3,9.7905273 3,10.5 C3,11.2094727 4.2319336,12 6,12 C7.7680664,12 9,11.2094727 9,10.5 C9,9.7905273 7.7680664,9 6,9 Z" id="Icon" fill="#CC0000"></path>
    </g>
</svg>