<!-- Generated by IcoMoon.io -->
<svg version="1.1" xmlns="http://www.w3.org/2000/svg" width="24" height="24" viewBox="0 0 24 24">
<title>ic_schedule_spending</title>
<path fill="#c00" d="M11.977 15.181c-0.017-0.004-0.034-0.007-0.051-0.011-0.178-0.041-0.363-0.097-0.551-0.164-0.231-0.083-0.423-0.166-0.544-0.224-0.298-0.144-0.424-0.503-0.28-0.801s0.503-0.424 0.801-0.28c0.086 0.042 0.241 0.109 0.428 0.176 0.145 0.052 0.285 0.094 0.412 0.123 0.12 0.027 0.223 0.041 0.301 0.041 0.765 0 1.11-0.244 1.11-0.669 0-0.178-0.143-0.347-0.464-0.524-0.161-0.089-0.677-0.305-0.677-0.306 0.056 0.028-0.533-0.22-0.784-0.355-0.697-0.375-1.139-0.849-1.139-1.529 0-0.9 0.629-1.564 1.439-1.782v-0.83c0-0.331 0.269-0.6 0.6-0.6s0.6 0.269 0.6 0.6v0.8c0.196 0.031 0.377 0.077 0.542 0.134 0.213 0.075 0.368 0.156 0.464 0.225 0.27 0.193 0.332 0.567 0.139 0.837s-0.567 0.332-0.837 0.139c-0.007-0.005-0.060-0.033-0.162-0.069-0.2-0.070-0.452-0.113-0.759-0.113-0.462 0-0.825 0.285-0.825 0.659 0 0.113 0.161 0.285 0.508 0.472 0.188 0.101 0.752 0.338 0.748 0.336-0.055-0.027 0.495 0.204 0.724 0.33 0.664 0.366 1.086 0.864 1.086 1.575 0 0.982-0.644 1.612-1.626 1.806v0.779c0 0.331-0.269 0.6-0.6 0.6s-0.6-0.269-0.6-0.6v-0.776zM3.702 16.803v-2.4h-0.7c-0.331 0-0.6-0.269-0.6-0.6s0.269-0.6 0.6-0.6h0.7v-2.4h-0.7c-0.331 0-0.6-0.269-0.6-0.6s0.269-0.6 0.6-0.6h0.7v-2.4h-0.7c-0.331 0-0.6-0.269-0.6-0.6s0.269-0.6 0.6-0.6h0.7v-4.087c0-0.994 0.806-1.8 1.8-1.8h14.296c0.994 0 1.8 0.806 1.8 1.8v20.169c0 0.994-0.806 1.8-1.8 1.8h-14.296c-0.994 0-1.8-0.806-1.8-1.8v-4.082h-0.7c-0.331 0-0.6-0.269-0.6-0.6s0.269-0.6 0.6-0.6h0.7zM4.902 16.803h0.5c0.331 0 0.6 0.269 0.6 0.6s-0.269 0.6-0.6 0.6h-0.5v4.082c0 0.331 0.269 0.6 0.6 0.6h14.296c0.331 0 0.6-0.269 0.6-0.6v-20.169c0-0.331-0.269-0.6-0.6-0.6h-14.296c-0.331 0-0.6 0.269-0.6 0.6v4.087h0.5c0.331 0 0.6 0.269 0.6 0.6s-0.269 0.6-0.6 0.6h-0.5v2.4h0.5c0.331 0 0.6 0.269 0.6 0.6s-0.269 0.6-0.6 0.6h-0.5v2.4h0.5c0.331 0 0.6 0.269 0.6 0.6s-0.269 0.6-0.6 0.6h-0.5v2.4z"></path>
</svg>
