<?xml version="1.0" encoding="UTF-8"?>
<svg width="48px" height="48px" viewBox="0 0 48 48" version="1.1" xmlns="http://www.w3.org/2000/svg" xmlns:xlink="http://www.w3.org/1999/xlink">
    <title>Artboard Copy 34</title>
    <g id="Artboard-Copy-34" stroke="none" stroke-width="1" fill="none" fill-rule="evenodd">
        <g id="C.-People-&amp;-Nature/a.-People/CA180-team-together-|-ðŸ”-PEOPLE,-profile,-together,-perfiles,-juntos" fill="#CC0000">
            <path d="M5.00427627,27.9746629 L15.0042763,27.9786744 C15.5564043,27.9788959 16.0038751,28.4265462 16.0038751,28.9786743 L16.0038751,29.9776628 L21.5572561,29.9778402 C22.6500827,29.9778402 23.700717,30.3830138 24.5089527,31.110045 L24.6783629,31.2707334 C25.0858564,31.678227 25.6237619,31.9249886 26.1940829,31.970266 L26.3852561,31.9778402 L32.9712561,31.9778402 C34.468008,31.9778402 35.7075674,33.0727945 35.9342168,34.5049375 L39.2560811,32.9478723 C40.8270554,32.1447877 42.8328514,32.5515011 43.6299299,34.2037784 C44.3967325,35.7932963 43.9333572,37.4595236 42.4172948,38.5452938 L42.2377029,38.6679616 L33.7077203,43.0801723 C31.0602314,43.9883202 28.2906267,44.2688195 24.9590305,43.6991786 L24.5011973,43.6162099 L16.0038751,41.7166628 L16.0038751,42.9782996 C16.0038751,43.5305843 15.5561599,43.9782996 15.0038751,43.9782996 L8.5942461,43.9782996 C6.05355331,43.9782996 4.00387513,41.9522741 4.00387513,39.4147032 L4.00387513,28.9746629 C4.00387513,28.4222215 4.45183491,27.9744414 5.00427627,27.9746629 Z M21.5572561,31.9778402 L16.0038751,31.9776628 L16.0038751,39.6676628 L24.9070479,41.6580655 C27.9078093,42.231791 30.3641841,42.0490591 32.5905415,41.3545683 L32.9228093,41.246587 L41.2292648,36.9437903 C41.9782555,36.453117 42.178594,35.7983153 41.8285823,35.0727702 C41.5901088,34.5784345 40.9148137,34.4136317 40.2651886,34.6838362 L40.1357429,34.7437084 L35.0744168,37.1174882 C34.5782612,37.6052554 33.9130928,37.9217174 33.1744531,37.9710738 L32.9712561,37.9778402 L26.9712561,37.9778402 C26.4189713,37.9778402 25.9712561,37.5301249 25.9712561,36.9778402 C25.9712561,36.4650043 26.3572963,36.042333 26.854635,35.9845679 L26.9712561,35.9778402 L32.9712561,35.9778402 C33.2306272,35.9778402 33.4667261,35.879364 33.644304,35.7177564 C33.6808361,35.6629113 33.7253645,35.6127456 33.7751238,35.5671311 C33.8995429,35.4035611 33.9712561,35.1991306 33.9712561,34.9778402 C33.9712561,34.4647479 33.5857205,34.0422964 33.0879853,33.984564 L32.9712561,33.9778402 L26.3852561,33.9778402 C25.2143704,33.9778402 24.0919198,33.5127175 23.2641493,32.684947 C22.8566558,32.2774534 22.3187503,32.0306918 21.7484292,31.9854144 L21.5572561,31.9778402 Z M6.00387513,29.9750641 L6.00387513,39.4147032 C6.00387513,40.842475 7.15295985,41.9782996 8.5942461,41.9782996 L14.0038751,41.9782996 L14.0038751,29.9782733 L6.00387513,29.9750641 Z M24.9983378,4.00190811 C25.5111736,4.00190811 25.933845,4.3879483 25.9916101,4.88528699 L25.9983378,5.00190811 L25.998633,6.46877493 C26.6502685,6.58241931 27.2986678,6.77247458 27.934711,7.02078923 C28.5731829,7.27005204 29.0655522,7.52183782 29.3607174,7.70045066 C29.8332253,7.98637851 29.9844783,8.60121216 29.6985505,9.07372005 C29.4126226,9.54622795 28.797789,9.69748095 28.3252811,9.4115531 C28.1216381,9.28832296 27.7286225,9.08734428 27.2073651,8.88384262 C26.3478059,8.54826616 25.4735517,8.34862998 24.6530095,8.34862998 C22.9642097,8.34862998 21.7955586,9.15286868 21.7955586,10.1854423 C21.7955586,11.2949666 22.6426214,11.9538285 25.201919,12.9877097 L25.4827208,13.0999553 L25.7537671,13.2071217 C29.1644442,14.5561653 30.4338953,15.4546648 30.4338953,17.5882692 C30.4338953,19.9056566 28.7006035,21.2968556 25.9984545,21.5860035 L25.9983378,23 C25.9983378,23.5522847 25.5506225,24 24.9983378,24 C24.485502,24 24.0628306,23.6139598 24.0050655,23.1166211 L23.9983378,23 L23.9968607,21.604634 C22.9101291,21.5111855 21.9658615,21.248767 21.1631964,20.8614238 C20.5213526,20.5516885 20.0858808,20.2251612 19.8429612,19.973262 C19.4595869,19.5757163 19.4710751,18.9426556 19.8686208,18.5592813 C20.2661665,18.175907 20.8992273,18.1873952 21.2826016,18.5849409 C21.3683838,18.6738941 21.6147766,18.8586453 22.0324208,19.0601885 C22.7810829,19.4214713 23.7288989,19.6425109 24.8985767,19.6425109 C27.2515161,19.6425109 28.4338953,18.8751611 28.4338953,17.5882692 C28.4338953,16.7049982 27.6711604,16.1346877 25.2805541,15.1716429 L25.0181492,15.0669245 L24.746733,14.9596118 C21.1879152,13.5511545 19.7955586,12.5310413 19.7955586,10.1854423 C19.7955586,8.04875973 21.6351935,6.6049842 23.9978092,6.37951961 L23.9983378,5.00190811 C23.9983378,4.44962336 24.446053,4.00190811 24.9983378,4.00190811 Z" id="Icon"></path>
        </g>
    </g>
</svg>